<?xml version="1.0" standalone="no"?>
<svg xmlns="http://www.w3.org/2000/svg" xmlns:xlink="http://www.w3.org/1999/xlink" version="1.1" id="v-2" width="100%" height="100%" xmlns:ev="http://www.w3.org/2001/xml-events" style="overflow: hidden; "><g id="v-3" class="joint-viewport svg-pan-zoom_viewport" transform="matrix(1.0000000182875624,0,0,1.0000000182875624,0,0)" style="transform: matrix(1, 0, 0, 1, 0, 0);"><g model-id="1fa49164-268a-4c07-91c1-7f9b1e895189" id="j_288" class="joint-cell joint-type-uml joint-type-uml-class joint-element joint-theme-default" data-type="uml.Class" fill="#ffffff" stroke="none" transform="translate(15,62)"><g class="rotatable" id="v-4013"><g class="scalable" transform="scale(1.61642578125,0.6833333333333333)"><rect class="uml-class-name-rect" id="v-4014" width="200" stroke="#ffffff" stroke-width="0.5" fill="#feb662" height="40" transform="translate(0,0)"/><rect class="uml-class-attrs-rect" id="v-4015" width="200" stroke="#fff" stroke-width="0.5" fill="#fdc886" height="80" transform="translate(0,40)"/><rect class="uml-class-methods-rect" id="v-4016" width="200" stroke="#fff" stroke-width="0.5" fill="#fdc886" display="none" height="20" transform="translate(0,120)"/></g><text class="uml-class-name-text" id="v-4017" font-size="12" xml:space="preserve" y="0.8em" text-anchor="middle" font-weight="bold" fill="black" font-family="Times New Roman" transform="matrix(1,0,0,1,161.6,8.1)"><tspan id="v-4020" class="v-line" dy="0em">User</tspan></text><text class="uml-class-attrs-text" id="v-4018" font-size="12" xml:space="preserve" y="0.8em" fill="black" font-family="monospace" transform="matrix(1,0,0,1,5,37.1)"><tspan id="v-4021" class="v-line" dy="0em">INT              id                  PK AI</tspan><tspan id="v-4022" class="v-line" dy="1em" x="0">VARCHAR(200)     email               NN UQ</tspan><tspan id="v-4023" class="v-line" dy="1em" x="0">TEXT             token               NN</tspan></text><text class="uml-class-methods-text" id="v-4019" font-size="12" display="none" xml:space="preserve" y="0.8em" fill="black" font-family="Times New Roman" transform="matrix(1,0,0,1,5,5)"><tspan id="v-4024" class="v-line v-empty-line" dy="0em" style="fill-opacity: 0; stroke-opacity: 0;">-</tspan></text></g></g><g model-id="177963da-e666-4168-8e7e-44ecafaa012c" id="j_289" class="joint-cell joint-type-uml joint-type-uml-class joint-element joint-theme-default" data-type="uml.Class" fill="#ffffff" stroke="none" transform="translate(461,0)"><g class="rotatable" id="v-4025"><g class="scalable" transform="scale(2.193720703125,0.6928571428571428)"><rect class="uml-class-name-rect" id="v-4026" width="200" stroke="#ffffff" stroke-width="0.5" fill="#feb662" height="40" transform="translate(0,0)"/><rect class="uml-class-attrs-rect" id="v-4027" width="200" stroke="#fff" stroke-width="0.5" fill="#fdc886" height="240" transform="translate(0,40)"/><rect class="uml-class-methods-rect" id="v-4028" width="200" stroke="#fff" stroke-width="0.5" fill="#fdc886" display="none" height="20" transform="translate(0,280)"/></g><text class="uml-class-name-text" id="v-4029" font-size="12" xml:space="preserve" y="0.8em" text-anchor="middle" font-weight="bold" fill="black" font-family="Times New Roman" transform="matrix(1,0,0,1,219.4,8.3)"><tspan id="v-4032" class="v-line" dy="0em">ReserveServices</tspan></text><text class="uml-class-attrs-text" id="v-4030" font-size="12" xml:space="preserve" y="0.8em" fill="black" font-family="monospace" transform="matrix(1,0,0,1,5,45.3)"><tspan id="v-4033" class="v-line" dy="0em">INT              id                  PK AI</tspan><tspan id="v-4034" class="v-line" dy="1em" x="0">INT              user_id             NN FK -&gt; User.id</tspan><tspan id="v-4035" class="v-line" dy="1em" x="0">INT              vehicle_id          NN FK -&gt; Vehicles.id</tspan><tspan id="v-4036" class="v-line" dy="1em" x="0">FLOAT            pickup_location_lat NN</tspan><tspan id="v-4037" class="v-line" dy="1em" x="0">FLOAT            pickup_location_longNN</tspan><tspan id="v-4038" class="v-line" dy="1em" x="0">FLOAT            dropoff_location_latNN</tspan><tspan id="v-4039" class="v-line" dy="1em" x="0">FLOAT            dropoff_location_lonNN</tspan><tspan id="v-4040" class="v-line" dy="1em" x="0">FLOAT            distance            NN</tspan><tspan id="v-4041" class="v-line" dy="1em" x="0">INT              total_price         NN</tspan><tspan id="v-4042" class="v-line" dy="1em" x="0">ENUM(CASH,QR)    payment_method      NN</tspan><tspan id="v-4043" class="v-line" dy="1em" x="0">ENUM(WAITING,GO  transport_status    NN</tspan></text><text class="uml-class-methods-text" id="v-4031" font-size="12" display="none" xml:space="preserve" y="0.8em" fill="black" font-family="Times New Roman" transform="matrix(1,0,0,1,5,5)"><tspan id="v-4044" class="v-line v-empty-line" dy="0em" style="fill-opacity: 0; stroke-opacity: 0;">-</tspan></text></g></g><g model-id="bbd09822-50ea-4e20-bf2f-9fa84108a73c" id="j_290" class="joint-cell joint-type-uml joint-type-uml-class joint-element joint-theme-default" data-type="uml.Class" fill="#ffffff" stroke="none" transform="translate(0,314)"><g class="rotatable" id="v-4045"><g class="scalable" transform="scale(1.61642578125,0.6833333333333333)"><rect class="uml-class-name-rect" id="v-4046" width="200" stroke="#ffffff" stroke-width="0.5" fill="#feb662" height="40" transform="translate(0,0)"/><rect class="uml-class-attrs-rect" id="v-4047" width="200" stroke="#fff" stroke-width="0.5" fill="#fdc886" height="80" transform="translate(0,40)"/><rect class="uml-class-methods-rect" id="v-4048" width="200" stroke="#fff" stroke-width="0.5" fill="#fdc886" display="none" height="20" transform="translate(0,120)"/></g><text class="uml-class-name-text" id="v-4049" font-size="12" xml:space="preserve" y="0.8em" text-anchor="middle" font-weight="bold" fill="black" font-family="Times New Roman" transform="matrix(1,0,0,1,161.6,8.1)"><tspan id="v-4052" class="v-line" dy="0em">ServiceOptions</tspan></text><text class="uml-class-attrs-text" id="v-4050" font-size="12" xml:space="preserve" y="0.8em" fill="black" font-family="monospace" transform="matrix(1,0,0,1,5,37.1)"><tspan id="v-4053" class="v-line" dy="0em">INT              id                  PK AI</tspan><tspan id="v-4054" class="v-line" dy="1em" x="0">TEXT             name                NN</tspan><tspan id="v-4055" class="v-line" dy="1em" x="0">INT              price               NN</tspan></text><text class="uml-class-methods-text" id="v-4051" font-size="12" display="none" xml:space="preserve" y="0.8em" fill="black" font-family="Times New Roman" transform="matrix(1,0,0,1,5,5)"><tspan id="v-4056" class="v-line v-empty-line" dy="0em" style="fill-opacity: 0; stroke-opacity: 0;">-</tspan></text></g></g><g model-id="8157cbe7-e3c0-458a-900a-ba04902479ac" id="j_291" class="joint-cell joint-type-uml joint-type-uml-class joint-element joint-theme-default" data-type="uml.Class" fill="#ffffff" stroke="none" transform="translate(426,312)"><g class="rotatable" id="v-4057"><g class="scalable" transform="scale(2.578583984375,0.68)"><rect class="uml-class-name-rect" id="v-4058" width="200" stroke="#ffffff" stroke-width="0.5" fill="#feb662" height="40" transform="translate(0,0)"/><rect class="uml-class-attrs-rect" id="v-4059" width="200" stroke="#fff" stroke-width="0.5" fill="#fdc886" height="60" transform="translate(0,40)"/><rect class="uml-class-methods-rect" id="v-4060" width="200" stroke="#fff" stroke-width="0.5" fill="#fdc886" display="none" height="20" transform="translate(0,100)"/></g><text class="uml-class-name-text" id="v-4061" font-size="12" xml:space="preserve" y="0.8em" text-anchor="middle" font-weight="bold" fill="black" font-family="Times New Roman" transform="matrix(1,0,0,1,257.9,8)"><tspan id="v-4064" class="v-line" dy="0em">ReserveServiceOptions</tspan></text><text class="uml-class-attrs-text" id="v-4062" font-size="12" xml:space="preserve" y="0.8em" fill="black" font-family="monospace" transform="matrix(1,0,0,1,5,36)"><tspan id="v-4065" class="v-line" dy="0em">INT              reserve_service_id  PK NN FK -&gt; ReserveServices.id</tspan><tspan id="v-4066" class="v-line" dy="1em" x="0">INT              service_option_id   PK NN FK -&gt; ServiceOptions.id</tspan></text><text class="uml-class-methods-text" id="v-4063" font-size="12" display="none" xml:space="preserve" y="0.8em" fill="black" font-family="Times New Roman" transform="matrix(1,0,0,1,5,5)"><tspan id="v-4067" class="v-line v-empty-line" dy="0em" style="fill-opacity: 0; stroke-opacity: 0;">-</tspan></text></g></g><g model-id="d06c6dee-2925-47ca-9f15-329bdae56f96" id="j_292" class="joint-cell joint-type-uml joint-type-uml-class joint-element joint-theme-default" data-type="uml.Class" fill="#ffffff" stroke="none" transform="translate(991,43)"><g class="rotatable" id="v-4068"><g class="scalable" transform="scale(1.61642578125,0.6875)"><rect class="uml-class-name-rect" id="v-4069" width="200" stroke="#ffffff" stroke-width="0.5" fill="#feb662" height="40" transform="translate(0,0)"/><rect class="uml-class-attrs-rect" id="v-4070" width="200" stroke="#fff" stroke-width="0.5" fill="#fdc886" height="120" transform="translate(0,40)"/><rect class="uml-class-methods-rect" id="v-4071" width="200" stroke="#fff" stroke-width="0.5" fill="#fdc886" display="none" height="20" transform="translate(0,160)"/></g><text class="uml-class-name-text" id="v-4072" font-size="12" xml:space="preserve" y="0.8em" text-anchor="middle" font-weight="bold" fill="black" font-family="Times New Roman" transform="matrix(1,0,0,1,161.6,8.2)"><tspan id="v-4075" class="v-line" dy="0em">Vehicles</tspan></text><text class="uml-class-attrs-text" id="v-4073" font-size="12" xml:space="preserve" y="0.8em" fill="black" font-family="monospace" transform="matrix(1,0,0,1,5,39.2)"><tspan id="v-4076" class="v-line" dy="0em">INT              id                  PK AI</tspan><tspan id="v-4077" class="v-line" dy="1em" x="0">TEXT             name                NN</tspan><tspan id="v-4078" class="v-line" dy="1em" x="0">INT              price               NN</tspan><tspan id="v-4079" class="v-line" dy="1em" x="0">VARCHAR(50)      model               NN</tspan><tspan id="v-4080" class="v-line" dy="1em" x="0">TEXT             image_url</tspan></text><text class="uml-class-methods-text" id="v-4074" font-size="12" display="none" xml:space="preserve" y="0.8em" fill="black" font-family="Times New Roman" transform="matrix(1,0,0,1,5,5)"><tspan id="v-4081" class="v-line v-empty-line" dy="0em" style="fill-opacity: 0; stroke-opacity: 0;">-</tspan></text></g></g><g model-id="9c48e1bf-ef93-4f51-98d4-6dcf6064358a" id="j_293" class="joint-cell joint-type-uml joint-type-uml-relationship joint-type-uml-relationship-nonidentifying joint-type-uml-relationship-nonidentifying-mandatory_one_optional_many joint-link joint-theme-default" data-type="uml.relationship.nonidentifying.mandatory_one_optional_many" fill="transparent"><path class="connection" stroke="black" d="M 441 100 353 101" id="v-4092" stroke-dasharray="3,3"/><path class="marker-source" fill="none" stroke="black" d="M 0 0 L 10 10 L 0 10 L 10 10 L 0 20 L 10 10 a 5,5 0 1,0 10,0 a 5,5 0 1,0 -10,0" id="v-4090" transform="translate(461.08130264739157,109.99967093607246) scale(1,1) rotate(-180.46580505371094)"/><path class="marker-target" fill="none" stroke="black" d="M 0 0 L 10 0 M 10 0 L 10 10 L 10 -10 M 15 0 L 15 10 L 15 -10" id="v-4091" transform="translate(338.0000037154142,100.99999947282114) scale(1,1) rotate(-0.46580907702445984)"/><path class="connection-wrap" d="M 441 100 353 101"/><g class="labels"><g class="label" id="v-4086" label-idx="0" cursor="default" transform="translate(397, 100.5)" fill="black"><rect id="v-4088" fill="white" rx="3" ry="3" width="0" height="0" transform="matrix(1,0,0,1,0,0)"/><text id="v-4087" font-size="14" display="none" xml:space="preserve" y="0.8em" text-anchor="middle" pointer-events="none"><tspan id="v-4089" class="v-line v-empty-line" dy="0em" style="fill-opacity: 0; stroke-opacity: 0;">-</tspan></text></g></g></g><g model-id="cdbb6a4e-6f5f-4a61-b77c-625e21a7f5b0" id="j_294" class="joint-cell joint-type-uml joint-type-uml-relationship joint-type-uml-relationship-nonidentifying joint-type-uml-relationship-nonidentifying-mandatory_one_optional_many joint-link joint-theme-default" data-type="uml.relationship.nonidentifying.mandatory_one_optional_many" fill="transparent"><path class="connection" stroke="black" d="M 920 97 976 97" id="v-4103" stroke-dasharray="3,3"/><path class="marker-source" fill="none" stroke="black" d="M 0 0 L 10 10 L 0 10 L 10 10 L 0 20 L 10 10 a 5,5 0 1,0 10,0 a 5,5 0 1,0 -10,0" id="v-4101" transform="translate(900,87) scale(1,1) rotate(0)"/><path class="marker-target" fill="none" stroke="black" d="M 0 0 L 10 0 M 10 0 L 10 10 L 10 -10 M 15 0 L 15 10 L 15 -10" id="v-4102" transform="translate(991,97) scale(1,1) rotate(-180)"/><path class="connection-wrap" d="M 920 97 976 97"/><g class="labels"><g class="label" id="v-4097" label-idx="0" cursor="default" transform="translate(948, 97)" fill="black"><rect id="v-4099" fill="white" rx="3" ry="3" width="0" height="0" transform="matrix(1,0,0,1,0,0)"/><text id="v-4098" font-size="14" display="none" xml:space="preserve" y="0.8em" text-anchor="middle" pointer-events="none"><tspan id="v-4100" class="v-line v-empty-line" dy="0em" style="fill-opacity: 0; stroke-opacity: 0;">-</tspan></text></g></g></g><g model-id="2ccabc49-6fa6-4e66-b185-803c8318bbe1" id="j_295" class="joint-cell joint-type-uml joint-type-uml-relationship joint-type-uml-relationship-identifying joint-type-uml-relationship-identifying-mandatory_one_optional_many joint-link joint-theme-default" data-type="uml.relationship.identifying.mandatory_one_optional_many" fill="transparent"><path class="connection" stroke="black" d="M 683 292 682 209"/><path class="marker-source" fill="none" stroke="black" d="M 0 0 L 10 10 L 0 10 L 10 10 L 0 20 L 10 10 a 5,5 0 1,0 10,0 a 5,5 0 1,0 -10,0" id="v-4112" transform="translate(673.0003843739547,312.0847492464691) scale(1,1) rotate(-90.48554229736328)"/><path class="marker-target" fill="none" stroke="black" d="M 0 0 L 10 0 M 10 0 L 10 10 L 10 -10 M 15 0 L 15 10 L 15 -10" id="v-4113" transform="translate(681.9999820189203,193.99999463407073) scale(1,1) rotate(89.51446533203125)"/><path class="connection-wrap" d="M 683 292 682 209"/><g class="labels"><g class="label" id="v-4108" label-idx="0" cursor="default" transform="translate(682.5, 250.5)" fill="black"><rect id="v-4110" fill="white" rx="3" ry="3" width="0" height="0" transform="matrix(1,0,0,1,0,0)"/><text id="v-4109" font-size="14" display="none" xml:space="preserve" y="0.8em" text-anchor="middle" pointer-events="none"><tspan id="v-4111" class="v-line v-empty-line" dy="0em" style="fill-opacity: 0; stroke-opacity: 0;">-</tspan></text></g></g></g><g model-id="9b8ad594-43af-4f5a-939a-e2bb64b26970" id="j_296" class="joint-cell joint-type-uml joint-type-uml-relationship joint-type-uml-relationship-identifying joint-type-uml-relationship-identifying-mandatory_one_optional_many joint-link joint-theme-default" data-type="uml.relationship.identifying.mandatory_one_optional_many" fill="transparent"><path class="connection" stroke="black" d="M 406 350 338 352"/><path class="marker-source" fill="none" stroke="black" d="M 0 0 L 10 10 L 0 10 L 10 10 L 0 20 L 10 10 a 5,5 0 1,0 10,0 a 5,5 0 1,0 -10,0" id="v-4122" transform="translate(426.19414501522954,359.998130611737) scale(1,1) rotate(-181.11239624023438)"/><path class="marker-target" fill="none" stroke="black" d="M 0 0 L 10 0 M 10 0 L 10 10 L 10 -10 M 15 0 L 15 10 L 15 -10" id="v-4123" transform="translate(323.0000096854793,352.0000042512382) scale(1,1) rotate(-1.1123995780944824)"/><path class="connection-wrap" d="M 406 350 338 352"/><g class="labels"><g class="label" id="v-4118" label-idx="0" cursor="default" transform="translate(372, 351)" fill="black"><rect id="v-4120" fill="white" rx="3" ry="3" width="0" height="0" transform="matrix(1,0,0,1,0,0)"/><text id="v-4119" font-size="14" display="none" xml:space="preserve" y="0.8em" text-anchor="middle" pointer-events="none"><tspan id="v-4121" class="v-line v-empty-line" dy="0em" style="fill-opacity: 0; stroke-opacity: 0;">-</tspan></text></g></g></g></g><defs id="v-4"/></svg>