<?xml version="1.0" standalone="no"?>
<svg xmlns="http://www.w3.org/2000/svg" xmlns:xlink="http://www.w3.org/1999/xlink" version="1.1" id="v-2" width="100%" height="100%" xmlns:ev="http://www.w3.org/2001/xml-events" style="overflow: hidden; "><g id="v-3" class="joint-viewport svg-pan-zoom_viewport" transform="matrix(1.0000000124879607,0,0,1.0000000124879607,0,0)" style="transform: matrix(1, 0, 0, 1, 0, 0);"><g model-id="829c4ccc-c7df-4409-92b9-d0a838607617" id="j_84" class="joint-cell joint-type-uml joint-type-uml-class joint-element joint-theme-default" data-type="uml.Class" fill="#ffffff" stroke="none" transform="translate(15,62)"><g class="rotatable" id="v-1018"><g class="scalable" transform="scale(1.61642578125,0.6833333333333333)"><rect class="uml-class-name-rect" id="v-1019" width="200" stroke="#ffffff" stroke-width="0.5" fill="#feb662" height="40" transform="translate(0,0)"/><rect class="uml-class-attrs-rect" id="v-1020" width="200" stroke="#fff" stroke-width="0.5" fill="#fdc886" height="80" transform="translate(0,40)"/><rect class="uml-class-methods-rect" id="v-1021" width="200" stroke="#fff" stroke-width="0.5" fill="#fdc886" display="none" height="20" transform="translate(0,120)"/></g><text class="uml-class-name-text" id="v-1022" font-size="12" xml:space="preserve" y="0.8em" text-anchor="middle" font-weight="bold" fill="black" font-family="Times New Roman" transform="matrix(1,0,0,1,161.6,8.1)"><tspan id="v-1025" class="v-line" dy="0em">User</tspan></text><text class="uml-class-attrs-text" id="v-1023" font-size="12" xml:space="preserve" y="0.8em" fill="black" font-family="monospace" transform="matrix(1,0,0,1,5,37.1)"><tspan id="v-1026" class="v-line" dy="0em">INT              id                  PK AI</tspan><tspan id="v-1027" class="v-line" dy="1em" x="0">VARCHAR(200)     email               NN UQ</tspan><tspan id="v-1028" class="v-line" dy="1em" x="0">TEXT             token               NN</tspan></text><text class="uml-class-methods-text" id="v-1024" font-size="12" display="none" xml:space="preserve" y="0.8em" fill="black" font-family="Times New Roman" transform="matrix(1,0,0,1,5,5)"><tspan id="v-1029" class="v-line v-empty-line" dy="0em" style="fill-opacity: 0; stroke-opacity: 0;">-</tspan></text></g></g><g model-id="4801e6c6-40fd-4362-a182-c8abf9680ef3" id="j_85" class="joint-cell joint-type-uml joint-type-uml-class joint-element joint-theme-default" data-type="uml.Class" fill="#ffffff" stroke="none" transform="translate(461,0)"><g class="rotatable" id="v-1030"><g class="scalable" transform="scale(2.193720703125,0.6928571428571428)"><rect class="uml-class-name-rect" id="v-1031" width="200" stroke="#ffffff" stroke-width="0.5" fill="#feb662" height="40" transform="translate(0,0)"/><rect class="uml-class-attrs-rect" id="v-1032" width="200" stroke="#fff" stroke-width="0.5" fill="#fdc886" height="240" transform="translate(0,40)"/><rect class="uml-class-methods-rect" id="v-1033" width="200" stroke="#fff" stroke-width="0.5" fill="#fdc886" display="none" height="20" transform="translate(0,280)"/></g><text class="uml-class-name-text" id="v-1034" font-size="12" xml:space="preserve" y="0.8em" text-anchor="middle" font-weight="bold" fill="black" font-family="Times New Roman" transform="matrix(1,0,0,1,219.4,8.3)"><tspan id="v-1037" class="v-line" dy="0em">ReserveServices</tspan></text><text class="uml-class-attrs-text" id="v-1035" font-size="12" xml:space="preserve" y="0.8em" fill="black" font-family="monospace" transform="matrix(1,0,0,1,5,45.3)"><tspan id="v-1038" class="v-line" dy="0em">INT              id                  PK AI</tspan><tspan id="v-1039" class="v-line" dy="1em" x="0">INT              user_id             NN FK -&gt; User.id</tspan><tspan id="v-1040" class="v-line" dy="1em" x="0">INT              vehicle_id          NN FK -&gt; Vehicles.id</tspan><tspan id="v-1041" class="v-line" dy="1em" x="0">FLOAT            pickup_location_lat NN</tspan><tspan id="v-1042" class="v-line" dy="1em" x="0">FLOAT            pickup_location_longNN</tspan><tspan id="v-1043" class="v-line" dy="1em" x="0">FLOAT            dropoff_location_latNN</tspan><tspan id="v-1044" class="v-line" dy="1em" x="0">FLOAT            dropoff_location_lonNN</tspan><tspan id="v-1045" class="v-line" dy="1em" x="0">FLOAT            distance            NN</tspan><tspan id="v-1046" class="v-line" dy="1em" x="0">INT              total_price         NN</tspan><tspan id="v-1047" class="v-line" dy="1em" x="0">ENUM(CASH,QR)    payment_method      NN</tspan><tspan id="v-1048" class="v-line" dy="1em" x="0">ENUM(WAITING,GO  transport_status    NN</tspan></text><text class="uml-class-methods-text" id="v-1036" font-size="12" display="none" xml:space="preserve" y="0.8em" fill="black" font-family="Times New Roman" transform="matrix(1,0,0,1,5,5)"><tspan id="v-1049" class="v-line v-empty-line" dy="0em" style="fill-opacity: 0; stroke-opacity: 0;">-</tspan></text></g></g><g model-id="cd5652c3-18b0-47a3-b5fd-a12c927dca16" id="j_86" class="joint-cell joint-type-uml joint-type-uml-class joint-element joint-theme-default" data-type="uml.Class" fill="#ffffff" stroke="none" transform="translate(0,314)"><g class="rotatable" id="v-1050"><g class="scalable" transform="scale(1.61642578125,0.6833333333333333)"><rect class="uml-class-name-rect" id="v-1051" width="200" stroke="#ffffff" stroke-width="0.5" fill="#feb662" height="40" transform="translate(0,0)"/><rect class="uml-class-attrs-rect" id="v-1052" width="200" stroke="#fff" stroke-width="0.5" fill="#fdc886" height="80" transform="translate(0,40)"/><rect class="uml-class-methods-rect" id="v-1053" width="200" stroke="#fff" stroke-width="0.5" fill="#fdc886" display="none" height="20" transform="translate(0,120)"/></g><text class="uml-class-name-text" id="v-1054" font-size="12" xml:space="preserve" y="0.8em" text-anchor="middle" font-weight="bold" fill="black" font-family="Times New Roman" transform="matrix(1,0,0,1,161.6,8.1)"><tspan id="v-1057" class="v-line" dy="0em">ServiceOptions</tspan></text><text class="uml-class-attrs-text" id="v-1055" font-size="12" xml:space="preserve" y="0.8em" fill="black" font-family="monospace" transform="matrix(1,0,0,1,5,37.1)"><tspan id="v-1058" class="v-line" dy="0em">INT              id                  PK AI</tspan><tspan id="v-1059" class="v-line" dy="1em" x="0">TEXT             name                NN</tspan><tspan id="v-1060" class="v-line" dy="1em" x="0">INT              price               NN</tspan></text><text class="uml-class-methods-text" id="v-1056" font-size="12" display="none" xml:space="preserve" y="0.8em" fill="black" font-family="Times New Roman" transform="matrix(1,0,0,1,5,5)"><tspan id="v-1061" class="v-line v-empty-line" dy="0em" style="fill-opacity: 0; stroke-opacity: 0;">-</tspan></text></g></g><g model-id="a97cb21b-afc9-4ac7-8ab0-af38f6c0c065" id="j_87" class="joint-cell joint-type-uml joint-type-uml-class joint-element joint-theme-default" data-type="uml.Class" fill="#ffffff" stroke="none" transform="translate(426,312)"><g class="rotatable" id="v-1062"><g class="scalable" transform="scale(2.578583984375,0.68)"><rect class="uml-class-name-rect" id="v-1063" width="200" stroke="#ffffff" stroke-width="0.5" fill="#feb662" height="40" transform="translate(0,0)"/><rect class="uml-class-attrs-rect" id="v-1064" width="200" stroke="#fff" stroke-width="0.5" fill="#fdc886" height="60" transform="translate(0,40)"/><rect class="uml-class-methods-rect" id="v-1065" width="200" stroke="#fff" stroke-width="0.5" fill="#fdc886" display="none" height="20" transform="translate(0,100)"/></g><text class="uml-class-name-text" id="v-1066" font-size="12" xml:space="preserve" y="0.8em" text-anchor="middle" font-weight="bold" fill="black" font-family="Times New Roman" transform="matrix(1,0,0,1,257.9,8)"><tspan id="v-1069" class="v-line" dy="0em">ReserveServiceOptions</tspan></text><text class="uml-class-attrs-text" id="v-1067" font-size="12" xml:space="preserve" y="0.8em" fill="black" font-family="monospace" transform="matrix(1,0,0,1,5,36)"><tspan id="v-1070" class="v-line" dy="0em">INT              reserve_service_id  PK NN FK -&gt; ReserveServices.id</tspan><tspan id="v-1071" class="v-line" dy="1em" x="0">INT              service_option_id   PK NN FK -&gt; ServiceOptions.id</tspan></text><text class="uml-class-methods-text" id="v-1068" font-size="12" display="none" xml:space="preserve" y="0.8em" fill="black" font-family="Times New Roman" transform="matrix(1,0,0,1,5,5)"><tspan id="v-1072" class="v-line v-empty-line" dy="0em" style="fill-opacity: 0; stroke-opacity: 0;">-</tspan></text></g></g><g model-id="5366eecb-2479-49ff-a656-87419d1de8e3" id="j_88" class="joint-cell joint-type-uml joint-type-uml-class joint-element joint-theme-default" data-type="uml.Class" fill="#ffffff" stroke="none" transform="translate(993,35)"><g class="rotatable" id="v-1073"><g class="scalable" transform="scale(1.61642578125,0.69)"><rect class="uml-class-name-rect" id="v-1074" width="200" stroke="#ffffff" stroke-width="0.5" fill="#feb662" height="40" transform="translate(0,0)"/><rect class="uml-class-attrs-rect" id="v-1075" width="200" stroke="#fff" stroke-width="0.5" fill="#fdc886" height="160" transform="translate(0,40)"/><rect class="uml-class-methods-rect" id="v-1076" width="200" stroke="#fff" stroke-width="0.5" fill="#fdc886" display="none" height="20" transform="translate(0,200)"/></g><text class="uml-class-name-text" id="v-1077" font-size="12" xml:space="preserve" y="0.8em" text-anchor="middle" font-weight="bold" fill="black" font-family="Times New Roman" transform="matrix(1,0,0,1,161.6,8.2)"><tspan id="v-1080" class="v-line" dy="0em">Vehicles</tspan></text><text class="uml-class-attrs-text" id="v-1078" font-size="12" xml:space="preserve" y="0.8em" fill="black" font-family="monospace" transform="matrix(1,0,0,1,5,41.2)"><tspan id="v-1081" class="v-line" dy="0em">INT              id                  PK AI</tspan><tspan id="v-1082" class="v-line" dy="1em" x="0">TEXT             name                NN</tspan><tspan id="v-1083" class="v-line" dy="1em" x="0">INT              initial_price       NN</tspan><tspan id="v-1084" class="v-line" dy="1em" x="0">INT              add_price           NN</tspan><tspan id="v-1085" class="v-line" dy="1em" x="0">INT              capacity            NN</tspan><tspan id="v-1086" class="v-line" dy="1em" x="0">VARCHAR(50)      model               NN</tspan><tspan id="v-1087" class="v-line" dy="1em" x="0">TEXT             image_url</tspan></text><text class="uml-class-methods-text" id="v-1079" font-size="12" display="none" xml:space="preserve" y="0.8em" fill="black" font-family="Times New Roman" transform="matrix(1,0,0,1,5,5)"><tspan id="v-1088" class="v-line v-empty-line" dy="0em" style="fill-opacity: 0; stroke-opacity: 0;">-</tspan></text></g></g><g model-id="88c5ad87-fd19-4d75-9b6e-cf76bb6feddf" id="j_89" class="joint-cell joint-type-uml joint-type-uml-relationship joint-type-uml-relationship-nonidentifying joint-type-uml-relationship-nonidentifying-mandatory_one_optional_many joint-link joint-theme-default" data-type="uml.relationship.nonidentifying.mandatory_one_optional_many" fill="transparent"><path class="connection" stroke="black" d="M 441 100 353 101" id="v-1099" stroke-dasharray="3,3"/><path class="marker-source" fill="none" stroke="black" d="M 0 0 L 10 10 L 0 10 L 10 10 L 0 20 L 10 10 a 5,5 0 1,0 10,0 a 5,5 0 1,0 -10,0" id="v-1097" transform="translate(461.0813026473916,109.99967093607246) scale(1,1) rotate(-180.46580505371094)"/><path class="marker-target" fill="none" stroke="black" d="M 0 0 L 10 0 M 10 0 L 10 10 L 10 -10 M 15 0 L 15 10 L 15 -10" id="v-1098" transform="translate(338.00000371541415,100.99999947282114) scale(1,1) rotate(-0.46580907702445984)"/><path class="connection-wrap" d="M 441 100 353 101"/><g class="labels"><g class="label" id="v-1093" label-idx="0" cursor="default" transform="translate(397, 100.5)" fill="black"><rect id="v-1095" fill="white" rx="3" ry="3" width="0" height="0" transform="matrix(1,0,0,1,0,0)"/><text id="v-1094" font-size="14" display="none" xml:space="preserve" y="0.8em" text-anchor="middle" pointer-events="none"><tspan id="v-1096" class="v-line v-empty-line" dy="0em" style="fill-opacity: 0; stroke-opacity: 0;">-</tspan></text></g></g></g><g model-id="6bbd5fbd-5263-4414-9356-f4d9987b456c" id="j_90" class="joint-cell joint-type-uml joint-type-uml-relationship joint-type-uml-relationship-nonidentifying joint-type-uml-relationship-nonidentifying-mandatory_one_optional_many joint-link joint-theme-default" data-type="uml.relationship.nonidentifying.mandatory_one_optional_many" fill="transparent"><path class="connection" stroke="black" d="M 920 100 978 101" id="v-1110" stroke-dasharray="3,3"/><path class="marker-source" fill="none" stroke="black" d="M 0 0 L 10 10 L 0 10 L 10 10 L 0 20 L 10 10 a 5,5 0 1,0 10,0 a 5,5 0 1,0 -10,0" id="v-1108" transform="translate(900.1075491261274,90.00057871152329) scale(1,1) rotate(0.6160583496093892)"/><path class="marker-target" fill="none" stroke="black" d="M 0 0 L 10 0 M 10 0 L 10 10 L 10 -10 M 15 0 L 15 10 L 15 -10" id="v-1109" transform="translate(992.9999937097457,100.99999759535694) scale(1,1) rotate(-179.38394165039062)"/><path class="connection-wrap" d="M 920 100 978 101"/><g class="labels"><g class="label" id="v-1104" label-idx="0" cursor="default" transform="translate(949, 100.5)" fill="black"><rect id="v-1106" fill="white" rx="3" ry="3" width="0" height="0" transform="matrix(1,0,0,1,0,0)"/><text id="v-1105" font-size="14" display="none" xml:space="preserve" y="0.8em" text-anchor="middle" pointer-events="none"><tspan id="v-1107" class="v-line v-empty-line" dy="0em" style="fill-opacity: 0; stroke-opacity: 0;">-</tspan></text></g></g></g><g model-id="0c354fe9-d0f8-4d17-b61a-d1a6284ded4d" id="j_91" class="joint-cell joint-type-uml joint-type-uml-relationship joint-type-uml-relationship-identifying joint-type-uml-relationship-identifying-mandatory_one_optional_many joint-link joint-theme-default" data-type="uml.relationship.identifying.mandatory_one_optional_many" fill="transparent"><path class="connection" stroke="black" d="M 683 292 682 209"/><path class="marker-source" fill="none" stroke="black" d="M 0 0 L 10 10 L 0 10 L 10 10 L 0 20 L 10 10 a 5,5 0 1,0 10,0 a 5,5 0 1,0 -10,0" id="v-1119" transform="translate(673.0003843739547,312.08474924646913) scale(1,1) rotate(-90.48554229736328)"/><path class="marker-target" fill="none" stroke="black" d="M 0 0 L 10 0 M 10 0 L 10 10 L 10 -10 M 15 0 L 15 10 L 15 -10" id="v-1120" transform="translate(681.9999820189203,193.99999463407067) scale(1,1) rotate(89.51446533203125)"/><path class="connection-wrap" d="M 683 292 682 209"/><g class="labels"><g class="label" id="v-1115" label-idx="0" cursor="default" transform="translate(682.5, 250.5)" fill="black"><rect id="v-1117" fill="white" rx="3" ry="3" width="0" height="0" transform="matrix(1,0,0,1,0,0)"/><text id="v-1116" font-size="14" display="none" xml:space="preserve" y="0.8em" text-anchor="middle" pointer-events="none"><tspan id="v-1118" class="v-line v-empty-line" dy="0em" style="fill-opacity: 0; stroke-opacity: 0;">-</tspan></text></g></g></g><g model-id="b1c3d196-348f-4c33-a2b7-0736ef16ffdc" id="j_92" class="joint-cell joint-type-uml joint-type-uml-relationship joint-type-uml-relationship-identifying joint-type-uml-relationship-identifying-mandatory_one_optional_many joint-link joint-theme-default" data-type="uml.relationship.identifying.mandatory_one_optional_many" fill="transparent"><path class="connection" stroke="black" d="M 406 350 338 352"/><path class="marker-source" fill="none" stroke="black" d="M 0 0 L 10 10 L 0 10 L 10 10 L 0 20 L 10 10 a 5,5 0 1,0 10,0 a 5,5 0 1,0 -10,0" id="v-1129" transform="translate(426.1941450152296,359.998130611737) scale(1,1) rotate(-181.11239624023438)"/><path class="marker-target" fill="none" stroke="black" d="M 0 0 L 10 0 M 10 0 L 10 10 L 10 -10 M 15 0 L 15 10 L 15 -10" id="v-1130" transform="translate(323.00000968547926,352.0000042512382) scale(1,1) rotate(-1.1123995780944824)"/><path class="connection-wrap" d="M 406 350 338 352"/><g class="labels"><g class="label" id="v-1125" label-idx="0" cursor="default" transform="translate(372, 351)" fill="black"><rect id="v-1127" fill="white" rx="3" ry="3" width="0" height="0" transform="matrix(1,0,0,1,0,0)"/><text id="v-1126" font-size="14" display="none" xml:space="preserve" y="0.8em" text-anchor="middle" pointer-events="none"><tspan id="v-1128" class="v-line v-empty-line" dy="0em" style="fill-opacity: 0; stroke-opacity: 0;">-</tspan></text></g></g></g></g><defs id="v-4"/></svg>